<mxfile host="app.diagrams.net" modified="2024-02-21T18:06:48.838Z" agent="Mozilla/5.0 (Windows NT 10.0; Win64; x64) AppleWebKit/537.36 (KHTML, like Gecko) Chrome/121.0.0.0 Safari/537.36" etag="dxVWvlGu10oCpDRuxXmC" version="23.0.2" type="device">
  <diagram name="Страница — 1" id="MGti7ucgVZ_qu5pdOB3O">
    <mxGraphModel dx="2345" dy="949" grid="1" gridSize="10" guides="1" tooltips="1" connect="1" arrows="1" fold="1" page="1" pageScale="1" pageWidth="827" pageHeight="1169" math="0" shadow="0">
      <root>
        <mxCell id="0" />
        <mxCell id="1" parent="0" />
        <mxCell id="tLy-N9u9URW1jZlhJs4V-4" value="" style="edgeStyle=orthogonalEdgeStyle;rounded=0;orthogonalLoop=1;jettySize=auto;html=1;" edge="1" parent="1" source="tLy-N9u9URW1jZlhJs4V-1" target="tLy-N9u9URW1jZlhJs4V-3">
          <mxGeometry relative="1" as="geometry" />
        </mxCell>
        <mxCell id="tLy-N9u9URW1jZlhJs4V-1" value="start" style="strokeWidth=2;html=1;shape=mxgraph.flowchart.start_2;whiteSpace=wrap;" vertex="1" parent="1">
          <mxGeometry x="130" y="50" width="90" height="40" as="geometry" />
        </mxCell>
        <mxCell id="tLy-N9u9URW1jZlhJs4V-2" value="GenerateArray" style="text;whiteSpace=wrap;" vertex="1" parent="1">
          <mxGeometry x="137.5" y="10" width="97.5" height="30" as="geometry" />
        </mxCell>
        <mxCell id="tLy-N9u9URW1jZlhJs4V-8" value="" style="edgeStyle=orthogonalEdgeStyle;rounded=0;orthogonalLoop=1;jettySize=auto;html=1;" edge="1" parent="1" source="tLy-N9u9URW1jZlhJs4V-3" target="tLy-N9u9URW1jZlhJs4V-6">
          <mxGeometry relative="1" as="geometry" />
        </mxCell>
        <mxCell id="tLy-N9u9URW1jZlhJs4V-3" value="&lt;span style=&quot;color: rgb(0, 0, 0); font-family: Helvetica; font-size: 12px; font-style: normal; font-variant-ligatures: normal; font-variant-caps: normal; font-weight: 400; letter-spacing: normal; orphans: 2; text-align: center; text-indent: 0px; text-transform: none; widows: 2; word-spacing: 0px; -webkit-text-stroke-width: 0px; background-color: rgb(251, 251, 251); text-decoration-thickness: initial; text-decoration-style: initial; text-decoration-color: initial; float: none; display: inline !important;&quot;&gt;string[] array = new string[size];&lt;/span&gt;" style="rounded=0&#xa;;whiteSpace=wrap;html=1;absoluteArcSize=1;arcSize=14;strokeWidth=2;" vertex="1" parent="1">
          <mxGeometry x="85" y="120" width="180" height="40" as="geometry" />
        </mxCell>
        <mxCell id="tLy-N9u9URW1jZlhJs4V-12" value="" style="edgeStyle=orthogonalEdgeStyle;rounded=0;orthogonalLoop=1;jettySize=auto;html=1;" edge="1" parent="1" source="tLy-N9u9URW1jZlhJs4V-6" target="tLy-N9u9URW1jZlhJs4V-11">
          <mxGeometry relative="1" as="geometry" />
        </mxCell>
        <mxCell id="tLy-N9u9URW1jZlhJs4V-17" value="" style="edgeStyle=orthogonalEdgeStyle;rounded=0;orthogonalLoop=1;jettySize=auto;html=1;" edge="1" parent="1" source="tLy-N9u9URW1jZlhJs4V-6" target="tLy-N9u9URW1jZlhJs4V-16">
          <mxGeometry relative="1" as="geometry">
            <Array as="points">
              <mxPoint x="300" y="235" />
              <mxPoint x="300" y="520" />
              <mxPoint x="175" y="520" />
            </Array>
          </mxGeometry>
        </mxCell>
        <mxCell id="tLy-N9u9URW1jZlhJs4V-6" value="int i = 0; i &amp;lt; size; i++" style="shape=hexagon;perimeter=hexagonPerimeter2;whiteSpace=wrap;html=1;fixedSize=1;" vertex="1" parent="1">
          <mxGeometry x="107.5" y="200" width="135" height="70" as="geometry" />
        </mxCell>
        <mxCell id="tLy-N9u9URW1jZlhJs4V-31" value="" style="edgeStyle=orthogonalEdgeStyle;rounded=0;orthogonalLoop=1;jettySize=auto;html=1;" edge="1" parent="1" source="tLy-N9u9URW1jZlhJs4V-7" target="tLy-N9u9URW1jZlhJs4V-30">
          <mxGeometry relative="1" as="geometry" />
        </mxCell>
        <mxCell id="tLy-N9u9URW1jZlhJs4V-39" value="" style="edgeStyle=orthogonalEdgeStyle;rounded=0;orthogonalLoop=1;jettySize=auto;html=1;" edge="1" parent="1" source="tLy-N9u9URW1jZlhJs4V-7" target="tLy-N9u9URW1jZlhJs4V-38">
          <mxGeometry relative="1" as="geometry">
            <Array as="points">
              <mxPoint x="360" y="235" />
              <mxPoint x="360" y="515" />
            </Array>
          </mxGeometry>
        </mxCell>
        <mxCell id="tLy-N9u9URW1jZlhJs4V-7" value="string str in array" style="shape=hexagon;perimeter=hexagonPerimeter2;whiteSpace=wrap;html=1;fixedSize=1;" vertex="1" parent="1">
          <mxGeometry x="450" y="200" width="120" height="70" as="geometry" />
        </mxCell>
        <mxCell id="tLy-N9u9URW1jZlhJs4V-14" style="edgeStyle=orthogonalEdgeStyle;rounded=0;orthogonalLoop=1;jettySize=auto;html=1;entryX=0;entryY=0.5;entryDx=0;entryDy=0;" edge="1" parent="1" source="tLy-N9u9URW1jZlhJs4V-9" target="tLy-N9u9URW1jZlhJs4V-6">
          <mxGeometry relative="1" as="geometry">
            <Array as="points">
              <mxPoint x="40" y="463" />
              <mxPoint x="40" y="235" />
            </Array>
          </mxGeometry>
        </mxCell>
        <mxCell id="tLy-N9u9URW1jZlhJs4V-9" value="array[i] = el;" style="whiteSpace=wrap;html=1;" vertex="1" parent="1">
          <mxGeometry x="122.5" y="440" width="105" height="45" as="geometry" />
        </mxCell>
        <mxCell id="tLy-N9u9URW1jZlhJs4V-13" value="" style="edgeStyle=orthogonalEdgeStyle;rounded=0;orthogonalLoop=1;jettySize=auto;html=1;" edge="1" parent="1" source="tLy-N9u9URW1jZlhJs4V-11" target="tLy-N9u9URW1jZlhJs4V-9">
          <mxGeometry relative="1" as="geometry" />
        </mxCell>
        <mxCell id="tLy-N9u9URW1jZlhJs4V-11" value="&#xa;&lt;span style=&quot;color: rgb(0, 0, 0); font-family: Helvetica; font-size: 12px; font-style: normal; font-variant-ligatures: normal; font-variant-caps: normal; font-weight: 400; letter-spacing: normal; orphans: 2; text-align: center; text-indent: 0px; text-transform: none; widows: 2; word-spacing: 0px; -webkit-text-stroke-width: 0px; background-color: rgb(251, 251, 251); text-decoration-thickness: initial; text-decoration-style: initial; text-decoration-color: initial; float: none; display: inline !important;&quot;&gt;string el = Console.ReadLine();&lt;/span&gt;&lt;br style=&quot;border-color: var(--border-color); color: rgb(0, 0, 0); font-family: Helvetica; font-size: 12px; font-style: normal; font-variant-ligatures: normal; font-variant-caps: normal; font-weight: 400; letter-spacing: normal; orphans: 2; text-align: center; text-indent: 0px; text-transform: none; widows: 2; word-spacing: 0px; -webkit-text-stroke-width: 0px; background-color: rgb(251, 251, 251); text-decoration-thickness: initial; text-decoration-style: initial; text-decoration-color: initial;&quot;&gt;&#xa;&#xa;" style="shape=parallelogram;html=1;strokeWidth=2;perimeter=parallelogramPerimeter;whiteSpace=wrap;rounded=1;arcSize=12;size=0.23;" vertex="1" parent="1">
          <mxGeometry x="100" y="320" width="150" height="70" as="geometry" />
        </mxCell>
        <mxCell id="tLy-N9u9URW1jZlhJs4V-19" value="" style="edgeStyle=orthogonalEdgeStyle;rounded=0;orthogonalLoop=1;jettySize=auto;html=1;" edge="1" parent="1" source="tLy-N9u9URW1jZlhJs4V-16" target="tLy-N9u9URW1jZlhJs4V-18">
          <mxGeometry relative="1" as="geometry" />
        </mxCell>
        <mxCell id="tLy-N9u9URW1jZlhJs4V-16" value="return array;" style="whiteSpace=wrap;html=1;" vertex="1" parent="1">
          <mxGeometry x="122.5" y="545" width="105" height="40" as="geometry" />
        </mxCell>
        <mxCell id="tLy-N9u9URW1jZlhJs4V-18" value="end" style="strokeWidth=2;html=1;shape=mxgraph.flowchart.start_2;whiteSpace=wrap;" vertex="1" parent="1">
          <mxGeometry x="130" y="630" width="90" height="40" as="geometry" />
        </mxCell>
        <mxCell id="tLy-N9u9URW1jZlhJs4V-28" value="" style="edgeStyle=orthogonalEdgeStyle;rounded=0;orthogonalLoop=1;jettySize=auto;html=1;" edge="1" parent="1" source="tLy-N9u9URW1jZlhJs4V-25" target="tLy-N9u9URW1jZlhJs4V-27">
          <mxGeometry relative="1" as="geometry" />
        </mxCell>
        <mxCell id="tLy-N9u9URW1jZlhJs4V-25" value="start" style="strokeWidth=2;html=1;shape=mxgraph.flowchart.start_1;whiteSpace=wrap;" vertex="1" parent="1">
          <mxGeometry x="470" y="50" width="80" height="40" as="geometry" />
        </mxCell>
        <mxCell id="tLy-N9u9URW1jZlhJs4V-26" value="&lt;span style=&quot;color: rgb(0, 0, 0); font-family: Helvetica; font-size: 12px; font-style: normal; font-variant-ligatures: normal; font-variant-caps: normal; font-weight: 400; letter-spacing: normal; orphans: 2; text-align: left; text-indent: 0px; text-transform: none; widows: 2; word-spacing: 0px; -webkit-text-stroke-width: 0px; background-color: rgb(251, 251, 251); text-decoration-thickness: initial; text-decoration-style: initial; text-decoration-color: initial; float: none; display: inline !important;&quot;&gt;FindElWithThreeChars&lt;/span&gt;" style="text;whiteSpace=wrap;html=1;" vertex="1" parent="1">
          <mxGeometry x="450" y="10" width="150" height="40" as="geometry" />
        </mxCell>
        <mxCell id="tLy-N9u9URW1jZlhJs4V-29" value="" style="edgeStyle=orthogonalEdgeStyle;rounded=0;orthogonalLoop=1;jettySize=auto;html=1;" edge="1" parent="1" source="tLy-N9u9URW1jZlhJs4V-27" target="tLy-N9u9URW1jZlhJs4V-7">
          <mxGeometry relative="1" as="geometry" />
        </mxCell>
        <mxCell id="tLy-N9u9URW1jZlhJs4V-27" value="int len = 0;" style="whiteSpace=wrap;html=1;strokeWidth=2;" vertex="1" parent="1">
          <mxGeometry x="460" y="130" width="100" height="30" as="geometry" />
        </mxCell>
        <mxCell id="tLy-N9u9URW1jZlhJs4V-33" value="" style="edgeStyle=orthogonalEdgeStyle;rounded=0;orthogonalLoop=1;jettySize=auto;html=1;" edge="1" parent="1" source="tLy-N9u9URW1jZlhJs4V-30" target="tLy-N9u9URW1jZlhJs4V-32">
          <mxGeometry relative="1" as="geometry">
            <Array as="points">
              <mxPoint x="430" y="340" />
            </Array>
          </mxGeometry>
        </mxCell>
        <mxCell id="tLy-N9u9URW1jZlhJs4V-36" style="edgeStyle=orthogonalEdgeStyle;rounded=0;orthogonalLoop=1;jettySize=auto;html=1;entryX=1;entryY=0.5;entryDx=0;entryDy=0;" edge="1" parent="1" source="tLy-N9u9URW1jZlhJs4V-30" target="tLy-N9u9URW1jZlhJs4V-7">
          <mxGeometry relative="1" as="geometry">
            <Array as="points">
              <mxPoint x="620" y="340" />
              <mxPoint x="620" y="235" />
            </Array>
          </mxGeometry>
        </mxCell>
        <mxCell id="tLy-N9u9URW1jZlhJs4V-30" value="&lt;span style=&quot;color: rgb(0, 0, 0); font-family: Helvetica; font-size: 12px; font-style: normal; font-variant-ligatures: normal; font-variant-caps: normal; font-weight: 400; letter-spacing: normal; orphans: 2; text-align: left; text-indent: 0px; text-transform: none; widows: 2; word-spacing: 0px; -webkit-text-stroke-width: 0px; background-color: rgb(251, 251, 251); text-decoration-thickness: initial; text-decoration-style: initial; text-decoration-color: initial; float: none; display: inline !important;&quot;&gt;str.Length &amp;lt;= 3&lt;/span&gt;" style="strokeWidth=2;html=1;shape=mxgraph.flowchart.decision;whiteSpace=wrap;" vertex="1" parent="1">
          <mxGeometry x="448" y="310" width="125" height="60" as="geometry" />
        </mxCell>
        <mxCell id="tLy-N9u9URW1jZlhJs4V-32" value="len++;" style="whiteSpace=wrap;html=1;strokeWidth=2;" vertex="1" parent="1">
          <mxGeometry x="390" y="410" width="70" height="40" as="geometry" />
        </mxCell>
        <mxCell id="tLy-N9u9URW1jZlhJs4V-35" value="yes" style="text;strokeColor=none;align=center;fillColor=none;html=1;verticalAlign=middle;whiteSpace=wrap;rounded=0;" vertex="1" parent="1">
          <mxGeometry x="370" y="350" width="60" height="30" as="geometry" />
        </mxCell>
        <mxCell id="tLy-N9u9URW1jZlhJs4V-37" value="no" style="text;strokeColor=none;align=center;fillColor=none;html=1;verticalAlign=middle;whiteSpace=wrap;rounded=0;" vertex="1" parent="1">
          <mxGeometry x="573" y="350" width="60" height="30" as="geometry" />
        </mxCell>
        <mxCell id="tLy-N9u9URW1jZlhJs4V-43" value="" style="edgeStyle=orthogonalEdgeStyle;rounded=0;orthogonalLoop=1;jettySize=auto;html=1;" edge="1" parent="1" source="tLy-N9u9URW1jZlhJs4V-38" target="tLy-N9u9URW1jZlhJs4V-42">
          <mxGeometry relative="1" as="geometry" />
        </mxCell>
        <mxCell id="tLy-N9u9URW1jZlhJs4V-38" value="return len;" style="whiteSpace=wrap;html=1;" vertex="1" parent="1">
          <mxGeometry x="470.75" y="490" width="79.5" height="45" as="geometry" />
        </mxCell>
        <mxCell id="tLy-N9u9URW1jZlhJs4V-45" value="" style="edgeStyle=orthogonalEdgeStyle;rounded=0;orthogonalLoop=1;jettySize=auto;html=1;" edge="1" parent="1" source="tLy-N9u9URW1jZlhJs4V-40" target="tLy-N9u9URW1jZlhJs4V-44">
          <mxGeometry relative="1" as="geometry" />
        </mxCell>
        <mxCell id="tLy-N9u9URW1jZlhJs4V-40" value="start" style="strokeWidth=2;html=1;shape=mxgraph.flowchart.start_1;whiteSpace=wrap;" vertex="1" parent="1">
          <mxGeometry x="1030" y="40" width="80" height="40" as="geometry" />
        </mxCell>
        <mxCell id="tLy-N9u9URW1jZlhJs4V-41" value="&lt;span style=&quot;color: rgb(0, 0, 0); font-family: Helvetica; font-size: 12px; font-style: normal; font-variant-ligatures: normal; font-variant-caps: normal; font-weight: 400; letter-spacing: normal; orphans: 2; text-align: left; text-indent: 0px; text-transform: none; widows: 2; word-spacing: 0px; -webkit-text-stroke-width: 0px; background-color: rgb(251, 251, 251); text-decoration-thickness: initial; text-decoration-style: initial; text-decoration-color: initial; float: none; display: inline !important;&quot;&gt;CreateThreeCharsArray&lt;/span&gt;" style="text;whiteSpace=wrap;html=1;" vertex="1" parent="1">
          <mxGeometry x="1000" y="5" width="160" height="40" as="geometry" />
        </mxCell>
        <mxCell id="tLy-N9u9URW1jZlhJs4V-42" value="end" style="strokeWidth=2;html=1;shape=mxgraph.flowchart.start_2;whiteSpace=wrap;" vertex="1" parent="1">
          <mxGeometry x="465" y="585" width="90" height="40" as="geometry" />
        </mxCell>
        <mxCell id="tLy-N9u9URW1jZlhJs4V-48" value="" style="edgeStyle=orthogonalEdgeStyle;rounded=0;orthogonalLoop=1;jettySize=auto;html=1;" edge="1" parent="1" source="tLy-N9u9URW1jZlhJs4V-44" target="tLy-N9u9URW1jZlhJs4V-47">
          <mxGeometry relative="1" as="geometry" />
        </mxCell>
        <mxCell id="tLy-N9u9URW1jZlhJs4V-44" value="&lt;span style=&quot;color: rgb(0, 0, 0); font-family: Helvetica; font-size: 12px; font-style: normal; font-variant-ligatures: normal; font-variant-caps: normal; font-weight: 400; letter-spacing: normal; orphans: 2; text-align: left; text-indent: 0px; text-transform: none; widows: 2; word-spacing: 0px; -webkit-text-stroke-width: 0px; background-color: rgb(251, 251, 251); text-decoration-thickness: initial; text-decoration-style: initial; text-decoration-color: initial; float: none; display: inline !important;&quot;&gt;int len = FindElWithThreeChars(arr);&lt;/span&gt;&lt;br style=&quot;border-color: var(--border-color); padding: 0px; margin: 0px; color: rgb(0, 0, 0); font-family: Helvetica; font-size: 12px; font-style: normal; font-variant-ligatures: normal; font-variant-caps: normal; font-weight: 400; letter-spacing: normal; orphans: 2; text-align: left; text-indent: 0px; text-transform: none; widows: 2; word-spacing: 0px; -webkit-text-stroke-width: 0px; background-color: rgb(251, 251, 251); text-decoration-thickness: initial; text-decoration-style: initial; text-decoration-color: initial;&quot;&gt;&lt;span style=&quot;color: rgb(0, 0, 0); font-family: Helvetica; font-size: 12px; font-style: normal; font-variant-ligatures: normal; font-variant-caps: normal; font-weight: 400; letter-spacing: normal; orphans: 2; text-align: left; text-indent: 0px; text-transform: none; widows: 2; word-spacing: 0px; -webkit-text-stroke-width: 0px; background-color: rgb(251, 251, 251); text-decoration-thickness: initial; text-decoration-style: initial; text-decoration-color: initial; float: none; display: inline !important;&quot;&gt;string[] threeChars = new string[len];&lt;/span&gt;&lt;br style=&quot;border-color: var(--border-color); padding: 0px; margin: 0px; color: rgb(0, 0, 0); font-family: Helvetica; font-size: 12px; font-style: normal; font-variant-ligatures: normal; font-variant-caps: normal; font-weight: 400; letter-spacing: normal; orphans: 2; text-align: left; text-indent: 0px; text-transform: none; widows: 2; word-spacing: 0px; -webkit-text-stroke-width: 0px; background-color: rgb(251, 251, 251); text-decoration-thickness: initial; text-decoration-style: initial; text-decoration-color: initial;&quot;&gt;&lt;span style=&quot;color: rgb(0, 0, 0); font-family: Helvetica; font-size: 12px; font-style: normal; font-variant-ligatures: normal; font-variant-caps: normal; font-weight: 400; letter-spacing: normal; orphans: 2; text-align: left; text-indent: 0px; text-transform: none; widows: 2; word-spacing: 0px; -webkit-text-stroke-width: 0px; background-color: rgb(251, 251, 251); text-decoration-thickness: initial; text-decoration-style: initial; text-decoration-color: initial; float: none; display: inline !important;&quot;&gt;&amp;nbsp; &amp;nbsp; int index = 0;&lt;/span&gt;" style="whiteSpace=wrap;html=1;strokeWidth=2;" vertex="1" parent="1">
          <mxGeometry x="960" y="140" width="220" height="80" as="geometry" />
        </mxCell>
        <mxCell id="tLy-N9u9URW1jZlhJs4V-46" style="edgeStyle=orthogonalEdgeStyle;rounded=0;orthogonalLoop=1;jettySize=auto;html=1;exitX=0.5;exitY=1;exitDx=0;exitDy=0;" edge="1" parent="1" source="tLy-N9u9URW1jZlhJs4V-44" target="tLy-N9u9URW1jZlhJs4V-44">
          <mxGeometry relative="1" as="geometry" />
        </mxCell>
        <mxCell id="tLy-N9u9URW1jZlhJs4V-57" value="" style="edgeStyle=orthogonalEdgeStyle;rounded=0;orthogonalLoop=1;jettySize=auto;html=1;" edge="1" parent="1" source="tLy-N9u9URW1jZlhJs4V-47" target="tLy-N9u9URW1jZlhJs4V-50">
          <mxGeometry relative="1" as="geometry" />
        </mxCell>
        <mxCell id="tLy-N9u9URW1jZlhJs4V-60" style="edgeStyle=orthogonalEdgeStyle;rounded=0;orthogonalLoop=1;jettySize=auto;html=1;entryX=0.5;entryY=0;entryDx=0;entryDy=0;" edge="1" parent="1" source="tLy-N9u9URW1jZlhJs4V-47" target="tLy-N9u9URW1jZlhJs4V-55">
          <mxGeometry relative="1" as="geometry">
            <Array as="points">
              <mxPoint x="890" y="305" />
              <mxPoint x="890" y="540" />
              <mxPoint x="1070" y="540" />
            </Array>
          </mxGeometry>
        </mxCell>
        <mxCell id="tLy-N9u9URW1jZlhJs4V-47" value="string str in array" style="shape=hexagon;perimeter=hexagonPerimeter2;whiteSpace=wrap;html=1;fixedSize=1;" vertex="1" parent="1">
          <mxGeometry x="1010" y="270" width="120" height="70" as="geometry" />
        </mxCell>
        <mxCell id="tLy-N9u9URW1jZlhJs4V-49" value="" style="edgeStyle=orthogonalEdgeStyle;rounded=0;orthogonalLoop=1;jettySize=auto;html=1;" edge="1" source="tLy-N9u9URW1jZlhJs4V-50" target="tLy-N9u9URW1jZlhJs4V-51" parent="1">
          <mxGeometry relative="1" as="geometry">
            <Array as="points">
              <mxPoint x="990" y="410" />
            </Array>
          </mxGeometry>
        </mxCell>
        <mxCell id="tLy-N9u9URW1jZlhJs4V-59" style="edgeStyle=orthogonalEdgeStyle;rounded=0;orthogonalLoop=1;jettySize=auto;html=1;entryX=1;entryY=0.5;entryDx=0;entryDy=0;" edge="1" parent="1" source="tLy-N9u9URW1jZlhJs4V-50" target="tLy-N9u9URW1jZlhJs4V-47">
          <mxGeometry relative="1" as="geometry">
            <Array as="points">
              <mxPoint x="1170" y="410" />
              <mxPoint x="1170" y="305" />
            </Array>
          </mxGeometry>
        </mxCell>
        <mxCell id="tLy-N9u9URW1jZlhJs4V-50" value="&lt;span style=&quot;color: rgb(0, 0, 0); font-family: Helvetica; font-size: 12px; font-style: normal; font-variant-ligatures: normal; font-variant-caps: normal; font-weight: 400; letter-spacing: normal; orphans: 2; text-align: left; text-indent: 0px; text-transform: none; widows: 2; word-spacing: 0px; -webkit-text-stroke-width: 0px; background-color: rgb(251, 251, 251); text-decoration-thickness: initial; text-decoration-style: initial; text-decoration-color: initial; float: none; display: inline !important;&quot;&gt;str.Length &amp;lt;= 3&lt;/span&gt;" style="strokeWidth=2;html=1;shape=mxgraph.flowchart.decision;whiteSpace=wrap;" vertex="1" parent="1">
          <mxGeometry x="1008" y="380" width="125" height="60" as="geometry" />
        </mxCell>
        <mxCell id="tLy-N9u9URW1jZlhJs4V-51" value="threeChars[index] = str;&lt;br&gt;index++;" style="whiteSpace=wrap;html=1;strokeWidth=2;" vertex="1" parent="1">
          <mxGeometry x="920" y="470" width="140" height="50" as="geometry" />
        </mxCell>
        <mxCell id="tLy-N9u9URW1jZlhJs4V-52" value="yes" style="text;strokeColor=none;align=center;fillColor=none;html=1;verticalAlign=middle;whiteSpace=wrap;rounded=0;" vertex="1" parent="1">
          <mxGeometry x="930" y="420" width="60" height="30" as="geometry" />
        </mxCell>
        <mxCell id="tLy-N9u9URW1jZlhJs4V-53" value="no" style="text;strokeColor=none;align=center;fillColor=none;html=1;verticalAlign=middle;whiteSpace=wrap;rounded=0;" vertex="1" parent="1">
          <mxGeometry x="1133" y="420" width="60" height="30" as="geometry" />
        </mxCell>
        <mxCell id="tLy-N9u9URW1jZlhJs4V-54" value="" style="edgeStyle=orthogonalEdgeStyle;rounded=0;orthogonalLoop=1;jettySize=auto;html=1;" edge="1" source="tLy-N9u9URW1jZlhJs4V-55" target="tLy-N9u9URW1jZlhJs4V-56" parent="1">
          <mxGeometry relative="1" as="geometry" />
        </mxCell>
        <mxCell id="tLy-N9u9URW1jZlhJs4V-55" value="return threeChars;" style="whiteSpace=wrap;html=1;" vertex="1" parent="1">
          <mxGeometry x="1005.5" y="570" width="130" height="45" as="geometry" />
        </mxCell>
        <mxCell id="tLy-N9u9URW1jZlhJs4V-56" value="end" style="strokeWidth=2;html=1;shape=mxgraph.flowchart.start_2;whiteSpace=wrap;" vertex="1" parent="1">
          <mxGeometry x="1025" y="655" width="90" height="40" as="geometry" />
        </mxCell>
        <mxCell id="tLy-N9u9URW1jZlhJs4V-61" value="&lt;span style=&quot;color: rgb(0, 0, 0); font-family: Helvetica; font-size: 12px; font-style: normal; font-variant-ligatures: normal; font-variant-caps: normal; font-weight: 400; letter-spacing: normal; orphans: 2; text-align: left; text-indent: 0px; text-transform: none; widows: 2; word-spacing: 0px; -webkit-text-stroke-width: 0px; background-color: rgb(251, 251, 251); text-decoration-thickness: initial; text-decoration-style: initial; text-decoration-color: initial; float: none; display: inline !important;&quot;&gt;PrintArray&lt;/span&gt;" style="text;whiteSpace=wrap;html=1;" vertex="1" parent="1">
          <mxGeometry x="1400" y="10" width="90" height="40" as="geometry" />
        </mxCell>
        <mxCell id="tLy-N9u9URW1jZlhJs4V-66" value="" style="edgeStyle=orthogonalEdgeStyle;rounded=0;orthogonalLoop=1;jettySize=auto;html=1;" edge="1" parent="1" source="tLy-N9u9URW1jZlhJs4V-62" target="tLy-N9u9URW1jZlhJs4V-65">
          <mxGeometry relative="1" as="geometry" />
        </mxCell>
        <mxCell id="tLy-N9u9URW1jZlhJs4V-62" value="start" style="strokeWidth=2;html=1;shape=mxgraph.flowchart.start_1;whiteSpace=wrap;" vertex="1" parent="1">
          <mxGeometry x="1390" y="45" width="80" height="40" as="geometry" />
        </mxCell>
        <mxCell id="tLy-N9u9URW1jZlhJs4V-71" value="" style="edgeStyle=orthogonalEdgeStyle;rounded=0;orthogonalLoop=1;jettySize=auto;html=1;" edge="1" parent="1" source="tLy-N9u9URW1jZlhJs4V-65" target="tLy-N9u9URW1jZlhJs4V-70">
          <mxGeometry relative="1" as="geometry" />
        </mxCell>
        <mxCell id="tLy-N9u9URW1jZlhJs4V-65" value="&#xa;&lt;span style=&quot;color: rgb(0, 0, 0); font-family: Helvetica; font-size: 12px; font-style: normal; font-variant-ligatures: normal; font-variant-caps: normal; font-weight: 400; letter-spacing: normal; orphans: 2; text-align: left; text-indent: 0px; text-transform: none; widows: 2; word-spacing: 0px; -webkit-text-stroke-width: 0px; background-color: rgb(251, 251, 251); text-decoration-thickness: initial; text-decoration-style: initial; text-decoration-color: initial; float: none; display: inline !important;&quot;&gt;Console.Write(&quot;[&quot;);&lt;/span&gt;&#xa;&#xa;" style="strokeWidth=2;html=1;shape=mxgraph.flowchart.document2;whiteSpace=wrap;size=0.25;" vertex="1" parent="1">
          <mxGeometry x="1370" y="120" width="120" height="60" as="geometry" />
        </mxCell>
        <mxCell id="tLy-N9u9URW1jZlhJs4V-69" value="" style="edgeStyle=orthogonalEdgeStyle;rounded=0;orthogonalLoop=1;jettySize=auto;html=1;" edge="1" parent="1" source="tLy-N9u9URW1jZlhJs4V-67" target="tLy-N9u9URW1jZlhJs4V-68">
          <mxGeometry relative="1" as="geometry" />
        </mxCell>
        <mxCell id="tLy-N9u9URW1jZlhJs4V-67" value="&lt;span style=&quot;color: rgb(0, 0, 0); font-family: Helvetica; font-size: 12px; font-style: normal; font-variant-ligatures: normal; font-variant-caps: normal; font-weight: 400; letter-spacing: normal; orphans: 2; text-align: left; text-indent: 0px; text-transform: none; widows: 2; word-spacing: 0px; -webkit-text-stroke-width: 0px; background-color: rgb(251, 251, 251); text-decoration-thickness: initial; text-decoration-style: initial; text-decoration-color: initial; float: none; display: inline !important;&quot;&gt;Console.Write(&quot;]&quot;);&lt;br&gt;&lt;br&gt;&lt;/span&gt;" style="strokeWidth=2;html=1;shape=mxgraph.flowchart.document2;whiteSpace=wrap;size=0.25;" vertex="1" parent="1">
          <mxGeometry x="1370" y="750" width="120" height="60" as="geometry" />
        </mxCell>
        <mxCell id="tLy-N9u9URW1jZlhJs4V-68" value="end" style="strokeWidth=2;html=1;shape=mxgraph.flowchart.start_2;whiteSpace=wrap;" vertex="1" parent="1">
          <mxGeometry x="1385" y="865" width="90" height="40" as="geometry" />
        </mxCell>
        <mxCell id="tLy-N9u9URW1jZlhJs4V-74" value="" style="edgeStyle=orthogonalEdgeStyle;rounded=0;orthogonalLoop=1;jettySize=auto;html=1;" edge="1" parent="1" source="tLy-N9u9URW1jZlhJs4V-70" target="tLy-N9u9URW1jZlhJs4V-72">
          <mxGeometry relative="1" as="geometry" />
        </mxCell>
        <mxCell id="tLy-N9u9URW1jZlhJs4V-70" value="int i = 0; i &amp;lt;array.Length; i++" style="shape=hexagon;perimeter=hexagonPerimeter2;whiteSpace=wrap;html=1;fixedSize=1;" vertex="1" parent="1">
          <mxGeometry x="1336.25" y="230" width="187.5" height="70" as="geometry" />
        </mxCell>
        <mxCell id="tLy-N9u9URW1jZlhJs4V-76" value="" style="edgeStyle=orthogonalEdgeStyle;rounded=0;orthogonalLoop=1;jettySize=auto;html=1;" edge="1" parent="1" source="tLy-N9u9URW1jZlhJs4V-72" target="tLy-N9u9URW1jZlhJs4V-75">
          <mxGeometry relative="1" as="geometry" />
        </mxCell>
        <mxCell id="tLy-N9u9URW1jZlhJs4V-72" value="Console.Write($&quot;{array[i]}&quot;);" style="strokeWidth=2;html=1;shape=mxgraph.flowchart.document2;whiteSpace=wrap;size=0.25;" vertex="1" parent="1">
          <mxGeometry x="1350" y="350" width="160" height="90" as="geometry" />
        </mxCell>
        <mxCell id="tLy-N9u9URW1jZlhJs4V-78" style="edgeStyle=orthogonalEdgeStyle;rounded=0;orthogonalLoop=1;jettySize=auto;html=1;" edge="1" parent="1" source="tLy-N9u9URW1jZlhJs4V-75" target="tLy-N9u9URW1jZlhJs4V-77">
          <mxGeometry relative="1" as="geometry">
            <Array as="points">
              <mxPoint x="1290" y="540" />
            </Array>
          </mxGeometry>
        </mxCell>
        <mxCell id="tLy-N9u9URW1jZlhJs4V-75" value="&lt;span style=&quot;color: rgb(0, 0, 0); font-family: Helvetica; font-size: 12px; font-style: normal; font-variant-ligatures: normal; font-variant-caps: normal; font-weight: 400; letter-spacing: normal; orphans: 2; text-align: left; text-indent: 0px; text-transform: none; widows: 2; word-spacing: 0px; -webkit-text-stroke-width: 0px; background-color: rgb(251, 251, 251); text-decoration-thickness: initial; text-decoration-style: initial; text-decoration-color: initial; float: none; display: inline !important;&quot;&gt;i != array.Length - 1&lt;/span&gt;" style="strokeWidth=2;html=1;shape=mxgraph.flowchart.decision;whiteSpace=wrap;" vertex="1" parent="1">
          <mxGeometry x="1355" y="490" width="150" height="100" as="geometry" />
        </mxCell>
        <mxCell id="tLy-N9u9URW1jZlhJs4V-82" style="edgeStyle=orthogonalEdgeStyle;rounded=0;orthogonalLoop=1;jettySize=auto;html=1;entryX=0;entryY=0.5;entryDx=0;entryDy=0;" edge="1" parent="1" source="tLy-N9u9URW1jZlhJs4V-77" target="tLy-N9u9URW1jZlhJs4V-70">
          <mxGeometry relative="1" as="geometry">
            <Array as="points">
              <mxPoint x="1290" y="265" />
            </Array>
          </mxGeometry>
        </mxCell>
        <mxCell id="tLy-N9u9URW1jZlhJs4V-77" value="&lt;span style=&quot;color: rgb(0, 0, 0); font-family: Helvetica; font-size: 12px; font-style: normal; font-variant-ligatures: normal; font-variant-caps: normal; font-weight: 400; letter-spacing: normal; orphans: 2; text-align: left; text-indent: 0px; text-transform: none; widows: 2; word-spacing: 0px; -webkit-text-stroke-width: 0px; background-color: rgb(251, 251, 251); text-decoration-thickness: initial; text-decoration-style: initial; text-decoration-color: initial; float: none; display: inline !important;&quot;&gt;Console.Write(&quot;,&quot;);&lt;/span&gt;" style="strokeWidth=2;html=1;shape=mxgraph.flowchart.document2;whiteSpace=wrap;size=0.25;" vertex="1" parent="1">
          <mxGeometry x="1230" y="630" width="120" height="75" as="geometry" />
        </mxCell>
        <mxCell id="tLy-N9u9URW1jZlhJs4V-79" value="yes" style="text;strokeColor=none;align=center;fillColor=none;html=1;verticalAlign=middle;whiteSpace=wrap;rounded=0;" vertex="1" parent="1">
          <mxGeometry x="1295" y="560" width="60" height="30" as="geometry" />
        </mxCell>
        <mxCell id="tLy-N9u9URW1jZlhJs4V-80" value="no" style="text;strokeColor=none;align=center;fillColor=none;html=1;verticalAlign=middle;whiteSpace=wrap;rounded=0;" vertex="1" parent="1">
          <mxGeometry x="1510" y="560" width="60" height="30" as="geometry" />
        </mxCell>
        <mxCell id="tLy-N9u9URW1jZlhJs4V-81" style="edgeStyle=orthogonalEdgeStyle;rounded=0;orthogonalLoop=1;jettySize=auto;html=1;entryX=1;entryY=0.25;entryDx=0;entryDy=0;entryPerimeter=0;" edge="1" parent="1" source="tLy-N9u9URW1jZlhJs4V-75" target="tLy-N9u9URW1jZlhJs4V-72">
          <mxGeometry relative="1" as="geometry">
            <Array as="points">
              <mxPoint x="1560" y="540" />
              <mxPoint x="1560" y="372" />
            </Array>
          </mxGeometry>
        </mxCell>
        <mxCell id="tLy-N9u9URW1jZlhJs4V-83" style="edgeStyle=orthogonalEdgeStyle;rounded=0;orthogonalLoop=1;jettySize=auto;html=1;entryX=0.5;entryY=0;entryDx=0;entryDy=0;entryPerimeter=0;" edge="1" parent="1" source="tLy-N9u9URW1jZlhJs4V-70" target="tLy-N9u9URW1jZlhJs4V-67">
          <mxGeometry relative="1" as="geometry">
            <Array as="points">
              <mxPoint x="1610" y="265" />
              <mxPoint x="1610" y="710" />
              <mxPoint x="1430" y="710" />
            </Array>
          </mxGeometry>
        </mxCell>
        <mxCell id="tLy-N9u9URW1jZlhJs4V-86" value="" style="edgeStyle=orthogonalEdgeStyle;rounded=0;orthogonalLoop=1;jettySize=auto;html=1;" edge="1" parent="1" source="tLy-N9u9URW1jZlhJs4V-84" target="tLy-N9u9URW1jZlhJs4V-85">
          <mxGeometry relative="1" as="geometry" />
        </mxCell>
        <mxCell id="tLy-N9u9URW1jZlhJs4V-84" value="start" style="strokeWidth=2;html=1;shape=mxgraph.flowchart.start_1;whiteSpace=wrap;" vertex="1" parent="1">
          <mxGeometry x="719.5" y="520" width="80" height="40" as="geometry" />
        </mxCell>
        <mxCell id="tLy-N9u9URW1jZlhJs4V-88" value="" style="edgeStyle=orthogonalEdgeStyle;rounded=0;orthogonalLoop=1;jettySize=auto;html=1;" edge="1" parent="1" source="tLy-N9u9URW1jZlhJs4V-85" target="tLy-N9u9URW1jZlhJs4V-87">
          <mxGeometry relative="1" as="geometry" />
        </mxCell>
        <mxCell id="tLy-N9u9URW1jZlhJs4V-85" value="Console.Write(&quot;How many elements in array? &quot;);" style="strokeWidth=2;html=1;shape=mxgraph.flowchart.document2;whiteSpace=wrap;size=0.25;" vertex="1" parent="1">
          <mxGeometry x="672.5" y="590" width="175" height="90" as="geometry" />
        </mxCell>
        <mxCell id="tLy-N9u9URW1jZlhJs4V-90" value="" style="edgeStyle=orthogonalEdgeStyle;rounded=0;orthogonalLoop=1;jettySize=auto;html=1;" edge="1" parent="1" source="tLy-N9u9URW1jZlhJs4V-87" target="tLy-N9u9URW1jZlhJs4V-89">
          <mxGeometry relative="1" as="geometry" />
        </mxCell>
        <mxCell id="tLy-N9u9URW1jZlhJs4V-87" value="int size = Convert.ToInt32(Console.ReadLine());&#xa;string[] arr = GenerateArray(size);&#xa;string[] threeChars = CreateThreeCharsArray(arr);&#xa;PrintArray(arr);" style="whiteSpace=wrap;html=1;strokeWidth=2;" vertex="1" parent="1">
          <mxGeometry x="620" y="715" width="280" height="95" as="geometry" />
        </mxCell>
        <mxCell id="tLy-N9u9URW1jZlhJs4V-92" value="" style="edgeStyle=orthogonalEdgeStyle;rounded=0;orthogonalLoop=1;jettySize=auto;html=1;" edge="1" parent="1" source="tLy-N9u9URW1jZlhJs4V-89" target="tLy-N9u9URW1jZlhJs4V-91">
          <mxGeometry relative="1" as="geometry" />
        </mxCell>
        <mxCell id="tLy-N9u9URW1jZlhJs4V-89" value="Console.Write(&quot; -&amp;gt; &quot;);" style="strokeWidth=2;html=1;shape=mxgraph.flowchart.document2;whiteSpace=wrap;size=0.25;" vertex="1" parent="1">
          <mxGeometry x="691.25" y="855" width="137.5" height="70" as="geometry" />
        </mxCell>
        <mxCell id="tLy-N9u9URW1jZlhJs4V-94" value="" style="edgeStyle=orthogonalEdgeStyle;rounded=0;orthogonalLoop=1;jettySize=auto;html=1;" edge="1" parent="1" source="tLy-N9u9URW1jZlhJs4V-91" target="tLy-N9u9URW1jZlhJs4V-93">
          <mxGeometry relative="1" as="geometry" />
        </mxCell>
        <mxCell id="tLy-N9u9URW1jZlhJs4V-91" value="PrintArray(threeChars);" style="whiteSpace=wrap;html=1;strokeWidth=2;" vertex="1" parent="1">
          <mxGeometry x="690.25" y="967" width="140" height="60" as="geometry" />
        </mxCell>
        <mxCell id="tLy-N9u9URW1jZlhJs4V-93" value="end" style="strokeWidth=2;html=1;shape=mxgraph.flowchart.start_2;whiteSpace=wrap;" vertex="1" parent="1">
          <mxGeometry x="714.5" y="1070" width="90" height="40" as="geometry" />
        </mxCell>
      </root>
    </mxGraphModel>
  </diagram>
</mxfile>
